<?xml version="1.0"?>
<svg version="1.1" xmlns="http://www.w3.org/2000/svg" width="400" height="200" style="border: dashed 2px #aaa"><path fill="#e63030" d="M16.19140625,113.76953125q0-4.23828125,0.380859375-8.486328125t1.591796875-8.369140625q0.3515625-1.23046875,0.91796875-2.431640625t1.38671875-2.138671875t1.953125-1.5234375t2.6953125-0.5859375l0.41015625,0.0390625q1.6796875,0.234375,2.48046875,1.357421875t0.80078125,2.802734375q0,0.44921875-0.107421875,1.123046875t-0.341796875,1.298828125t-0.634765625,1.064453125t-1.005859375,0.439453125q-0.2734375-0.0390625-0.498046875-0.09765625t-0.419921875-0.25390625q0.3125-0.68359375,0.556640625-1.42578125t0.244140625-1.69921875q0-0.3515625-0.05859375-0.8984375t-0.224609375-1.083984375t-0.439453125-0.9375t-0.76171875-0.400390625q-1.23046875,0-2.0703125,1.376953125t-1.40625,3.515625t-0.83984375,4.7265625t-0.419921875,5t-0.166015625,4.35546875t-0.01953125,2.744140625q0,0.9375-0.01953125,2.0703125l0,0.25390625q0.01953125,0.99609375,0.13671875,1.89453125q0.15625,1.015625,0.60546875,1.7578125t1.40625,0.859375q0.29296875,0.0390625,0.56640625,0.0390625q1.1328125,0,2.05078125-0.64453125q1.1328125-0.80078125,2.01171875-2.080078125t1.5625-2.8125t1.259765625-2.900390625t1.123046875-2.265625t1.1328125-0.8984375q0.1953125,0,0.5859375,0.078125t0.390625,0.37109375q0,0.078125-0.0390625,0.21484375t-0.09765625,0.21484375q-0.52734375,2.0703125-1.337890625,4.296875t-2.0703125,4.052734375t-3.0859375,2.978515625t-4.384765625,1.15234375q-1.8359375,0-2.978515625-0.693359375t-1.7578125-1.85546875t-0.83984375-2.626953125t-0.224609375-2.96875z M37.0052734375,107.24609375q0-0.80078125,0.283203125-1.34765625t1.201171875-0.546875q0.3515625,0,0.87890625,0.107421875t0.60546875,0.537109375q0.1953125,1.15234375,0.21484375,2.5t0.13671875,2.5390625q0.44921875-0.87890625,1.15234375-1.89453125t1.6015625-1.875t1.953125-1.42578125t2.1484375-0.56640625q0.078125,0,0.29296875,0.05859375t0.400390625,0.166015625t0.224609375,0.244140625t-0.21484375,0.25390625q-0.078125,0.234375-0.33203125,0.283203125t-0.44921875,0.048828125q-0.1171875,0-0.37109375-0.09765625q-1.4453125,0.76171875-2.4609375,2.0703125t-1.66015625,2.900390625t-0.9375,3.359375t-0.29296875,3.447265625q0,0.83984375-0.380859375,1.015625t-1.220703125,0.17578125q-0.44921875,0-0.947265625-0.09765625t-0.693359375-0.625q-0.3515625-1.11328125-0.576171875-2.55859375t-0.341796875-2.978515625t-0.166015625-3.017578125t-0.048828125-2.67578125z M50.885546875,112.24609375q0-1.796875,0.419921875-3.525390625t0.712890625-3.447265625q0.078125-0.44921875,0.615234375-0.556640625t0.908203125-0.107421875q0.64453125,0,1.03515625,0.1953125q0.15625,0.078125,0.29296875,0.17578125t0.13671875,0.25390625q0,1.6796875-0.400390625,3.28125t-0.400390625,3.3984375q0,0.60546875,0.087890625,1.142578125t0.166015625,1.064453125l0.1171875,0.56640625q0,0.15625,0.01953125,0.2734375t0.05859375,0.2734375q0,0.3515625-0.498046875,0.478515625t-0.869140625,0.126953125q-0.56640625,0-1.044921875-0.224609375t-0.751953125-0.771484375l-0.2734375-0.56640625q-0.234375-0.44921875-0.234375-1.005859375t-0.09765625-1.025390625z M52.135546875,100.48828125l0-0.37109375q0-0.91796875,0.458984375-1.640625t1.376953125-0.72265625q0.1171875,0,0.224609375,0.01953125t0.224609375,0.01953125q0.234375,0.0390625,0.615234375,0.185546875t0.380859375,0.458984375l0,0.0390625q-0.078125,0.15625-0.09765625,0.322265625t-0.09765625,0.283203125l0.0390625-0.0390625q-0.234375,0.60546875-0.380859375,0.9765625t-0.322265625,0.595703125t-0.439453125,0.322265625t-0.751953125,0.09765625q-0.078125,0-0.2734375-0.01953125t-0.419921875-0.078125t-0.380859375-0.15625t-0.15625-0.29296875z M59.4142578125,107.67578125q0-0.80078125,0.46875-1.376953125t1.142578125-0.9375t1.474609375-0.537109375t1.484375-0.17578125q0.52734375,0,1.40625,0.15625t1.71875,0.46875t1.455078125,0.8203125t0.615234375,1.19140625q0,0.3125-0.234375,0.556640625t-0.48828125,0.244140625q-0.52734375,0-0.95703125-0.341796875t-0.888671875-0.72265625t-1.005859375-0.72265625t-1.23046875-0.341796875t-1.240234375,0.439453125t-0.556640625,1.162109375q0,1.19140625,0.83984375,2.333984375t1.845703125,2.40234375t1.845703125,2.646484375t0.83984375,3.06640625q0,0.72265625-0.302734375,1.220703125t-0.80078125,0.810546875t-1.123046875,0.478515625t-1.2109375,0.166015625q-0.64453125,0-1.50390625-0.302734375t-1.62109375-0.80078125t-1.279296875-1.162109375t-0.517578125-1.38671875q0-0.3515625,0.498046875-0.44921875t0.732421875-0.09765625q0.1171875,0,0.361328125,0.078125t0.478515625,0.17578125t0.419921875,0.21484375t0.146484375,0.25390625q0.1953125,0.234375,0.595703125,0.693359375t0.80078125,0.7421875t0.703125,0.205078125t0.302734375-0.87890625q0-1.5234375-0.8203125-2.802734375t-1.787109375-2.5t-1.787109375-2.421875t-0.8203125-2.568359375z M73.3921875,108.2421875l0.234375-0.41015625q2.9296875-1.71875,5.80078125-3.4765625t5.87890625-3.359375l-0.078125,0.0390625q0.44921875-0.3125,0.908203125-0.498046875t0.966796875-0.185546875q0.3125,0,0.76171875,0.087890625t0.52734375,0.517578125q-0.078125,0.1953125-0.83984375,0.7421875t-1.884765625,1.30859375t-2.4609375,1.572265625t-2.55859375,1.572265625t-2.16796875,1.34765625t-1.298828125,0.78125q0.3515625,0.2734375,1.298828125,0.9765625t2.109375,1.6015625t2.421875,1.904296875t2.333984375,1.884765625t1.796875,1.552734375t0.83984375,0.927734375q-0.078125,0.56640625-0.732421875,0.703125t-1.103515625,0.13671875t-1.40625-0.5859375t-2.177734375-1.484375t-2.55859375-2.001953125t-2.59765625-2.138671875t-2.255859375-1.875t-1.5234375-1.25z M92.3115234375,92.83203125q0-1.3671875,0.46875-1.8359375t1.30859375-0.46875q0.234375,0,0.498046875,0.0390625t0.498046875,0.1171875q1.30859375-0.25390625,2.48046875-0.25390625q1.89453125,0,3.4375,0.6640625q2.48046875,1.0546875,4.1015625,3.125t2.3828125,4.86328125t0.76171875,5.72265625q0,1.640625-0.224609375,3.41796875t-0.869140625,3.30078125q-0.56640625,1.3671875-1.5625,2.861328125t-2.255859375,2.83203125t-2.71484375,2.34375t-2.939453125,1.357421875l0,0.15625q0,0.390625-0.205078125,0.634765625t-0.498046875,0.37109375t-0.673828125,0.166015625t-0.712890625,0.0390625q-0.1953125,0-0.556640625-0.0390625t-0.703125-0.146484375t-0.576171875-0.283203125t-0.234375-0.48828125q0-3.5546875-0.185546875-7.119140625t-0.419921875-7.12890625t-0.419921875-7.119140625t-0.185546875-7.12890625z M96.0029296875,91.8359375q0.1953125,1.875,0.25390625,3.740234375t0.17578125,3.740234375q0.3125,4.84375,0.72265625,9.638671875t0.48828125,9.638671875q1.875-1.23046875,3.212890625-2.8125t2.197265625-3.4375t1.259765625-3.896484375t0.400390625-4.208984375q0-1.5625-0.2734375-3.4375t-0.9375-3.61328125t-1.787109375-3.14453125t-2.802734375-2.01171875q-0.3515625-0.1171875-0.849609375-0.1953125t-1.591796875-0.078125q-0.1171875,0-0.234375,0.0390625t-0.234375,0.0390625z M112.226953125,113.515625q0-1.3671875,0.302734375-3.22265625t1.025390625-3.515625t1.904296875-2.822265625t2.978515625-1.162109375q1.6796875,0,2.51953125,0.966796875t0.83984375,2.607421875q0,1.07421875-0.400390625,2.353515625t-1.142578125,2.421875t-1.7578125,1.904296875t-2.265625,0.76171875l-0.5078125-0.0390625q0,0.52734375,0.15625,1.416015625t0.458984375,1.767578125t0.78125,1.54296875t1.162109375,0.6640625q0.99609375,0,1.9140625-0.80078125t1.73828125-1.77734375t1.5234375-1.77734375t1.2890625-0.80078125q0.3125,0,0.64453125,0.09765625t0.37109375,0.546875q0,0.2734375-0.146484375,0.44921875t-0.263671875,0.390625q-0.60546875,1.03515625-1.318359375,1.97265625t-1.611328125,1.69921875t-1.962890625,1.201171875t-2.353515625,0.439453125q-1.6796875,0-2.79296875-0.595703125t-1.796875-1.6015625t-0.986328125-2.32421875t-0.302734375-2.763671875z M115.723046875,112.03125l0.546875,0.48828125q0.390625,0.3515625,0.78125,0.15625t0.703125-0.712890625t0.576171875-1.279296875t0.46875-1.5625t0.302734375-1.5625t0.09765625-1.26953125l0-0.6640625t-0.05859375-0.703125t-0.205078125-0.556640625t-0.458984375-0.283203125q-0.09765625-0.01953125-0.17578125-0.01953125q-0.6640625,0-1.1328125,0.83984375q-0.5078125,0.9375-0.8203125,2.275390625t-0.44921875,2.744140625t-0.17578125,2.109375z M127.7478515625,105.44921875q0-0.15625,0.185546875-0.283203125t0.419921875-0.185546875t0.478515625-0.078125t0.361328125-0.01953125q0.87890625,0,1.50390625,0.78125t1.083984375,2.001953125t0.78125,2.6953125t0.615234375,2.939453125t0.576171875,2.685546875t0.634765625,1.884765625q0.60546875-1.19140625,1.103515625-2.87109375t0.91796875-3.4765625t0.7421875-3.544921875t0.517578125-3.056640625q0.078125-0.3515625,0.48828125-0.439453125t0.68359375-0.087890625q0.44921875,0,0.78125,0.126953125t0.33203125,0.556640625q0,0.72265625-0.17578125,1.962890625t-0.478515625,2.783203125t-0.703125,3.1640625t-0.859375,3.076171875t-0.95703125,2.578125t-0.986328125,1.591796875q-0.234375,0.2734375-0.732421875,0.380859375t-0.830078125,0.107421875q-1.15234375,0-1.9140625-0.60546875l0,0.0390625q-1.19140625-1.11328125-1.7578125-2.71484375t-0.8203125-3.33984375t-0.458984375-3.45703125t-0.693359375-3.125q-0.078125-0.15625-0.1953125-0.458984375t-0.2734375-0.60546875t-0.263671875-0.576171875t-0.107421875-0.4296875z M141.96015625,118.359375q0-0.1171875,0.341796875-0.556640625t0.78125-0.95703125t0.83984375-0.95703125t0.517578125-0.615234375q2.0703125-2.51953125,3.994140625-5.439453125t3.80859375-5.95703125t3.798828125-5.95703125t4.04296875-5.439453125q0.60546875-0.68359375,1.201171875-1.240234375t1.591796875-0.556640625q0.15625,0,0.439453125,0.01953125t0.56640625,0.09765625t0.478515625,0.21484375t0.1953125,0.390625q0,0.1171875-0.322265625,0.556640625t-0.703125,0.95703125t-0.732421875,0.9765625t-0.48828125,0.615234375q-0.48828125,0.64453125-1.357421875,2.001953125t-2.01171875,3.18359375t-2.48046875,3.9453125t-2.724609375,4.23828125t-2.724609375,4.1015625t-2.5,3.53515625t-2.041015625,2.55859375t-1.34765625,1.123046875q-0.48828125,0.1171875-1.09375,0.1171875q-0.1953125,0-0.556640625-0.0390625t-0.693359375-0.13671875t-0.576171875-0.283203125t-0.244140625-0.498046875z M167.5396484375,100.95703125q0.078125-0.44921875,0.517578125-0.52734375t0.751953125-0.078125q0.52734375,0,0.986328125,0.185546875t0.888671875,0.498046875l-0.078125-0.0390625q3.0078125,1.6015625,5.888671875,3.359375t5.791015625,3.4765625l0.25390625,0.41015625l-0.25390625,0.390625q-0.52734375,0.390625-1.5234375,1.240234375t-2.255859375,1.884765625t-2.59765625,2.138671875t-2.55859375,2.001953125t-2.177734375,1.484375t-1.40625,0.5859375t-1.103515625-0.146484375t-0.732421875-0.693359375q0.078125-0.234375,0.8203125-0.91796875t1.826171875-1.5625t2.34375-1.884765625t2.412109375-1.904296875t2.080078125-1.6015625t1.318359375-0.9765625q-0.3515625-0.1953125-1.298828125-0.78125t-2.16796875-1.34765625t-2.55859375-1.572265625t-2.451171875-1.572265625t-1.875-1.30859375t-0.83984375-0.7421875z"/><path fill="#" d=""/></svg>
